-
http:// www. Speed. Cd       
http:// www. Speed. Cd       the fast  and The Hottest Private Tracker on the net

Please Seed back to make the speed Faster!!!

and don't forget to visit      ...... www. Speed. Cd..........
-[img]http://img196.imageshack.us/img196/4310/trackertg.jpg[/img]

[color=blue][size=5][b]Tracker.2010.BDRip.XVID.AC3.HQ.Hive-CM8[/b][/size][/color]


[b]Thx Hive

CM8 Doing It Right The First Time :D


Source Bluray

Video: 720x304 @bitrate 1800 2pass
Audio: DTS to AC3 5.1 @448
Sample: yes included[/b]


[url]http://www.imdb.com/title/tt1414378/[/url]


General
Complete name                    : Tracker.2010.BDRip.XVID.AC3.HQ.Hive-CM8.avi
Format                           : AVI
Format/Info                      : Audio Video Interleave
File size                        : 1.61 GiB
Duration                         : 1h 42mn
Overall bit rate                 : 2 253 Kbps
Writing application              : Nandub v1.0rc2
Writing library                  : Nandub build 1853/release

Video
ID                               : 0
Format                           : MPEG-4 Visual
Format profile                   : Advanced Simple@L5
Format settings, BVOP            : Yes
Format settings, QPel            : Yes
Format settings, GMC             : No warppoints
Format settings, Matrix          : Default (H.263)
Muxing mode                      : Packed bitstream
Codec ID                         : XVID
Codec ID/Hint                    : XviD
Duration                         : 1h 42mn
Bit rate                         : 1 795 Kbps
Width                            : 720 pixels
Height                           : 304 pixels
Display aspect ratio             : 2.40:1
Frame rate                       : 23.976 fps
Color space                      : YUV
Chroma subsampling               : 4:2:0
Bit depth                        : 8 bits
Scan type                        : Progressive
Bits/(Pixel*Frame)               : 0.342
Stream size                      : 1.28 GiB (80%)
Writing library                  : XviD 1.2.1 (UTC 2008-12-04)

Audio
ID                               : 1
Format                           : AC-3
Format/Info                      : Audio Coding 3
Mode extension                   : CM (complete main)
Codec ID                         : 2000
Duration                         : 1h 42mn
Bit rate mode                    : Constant
Bit rate                         : 448 Kbps
Channel(s)                       : 6 channels
Channel positions                : Front: L C R, Side: L R, LFE
Sampling rate                    : 48.0 KHz
Bit depth                        : 16 bits
Video delay                      : 26ms
Stream size                      : 328 MiB (20%)
Alignment                        : Split accross interleaves
Interleave, duration             : 42 ms (1.00 video frame)
Interleave, preload duration     : 500 ms



Ray Winstone	 ... 	Arjan
Temuera Morrison	... 	Kereama
Andy Anderson	... 	Bryce
Gareth Reeves	... 	Major Pritchard Carlysle
Mark Mitchinson	... 	Saunders
Daniel Musgrove	... 	Private Renwick
Tim McLachlan	... 	Levin
Steve Reinsfield	... 	Drake


An ex-Boer war guerrilla in New Zealand is sent out to bring back a Maori 
accused of killing a British soldier. Gradually they grow to know and respect 
one another but a posse, led by the British Commanding officer is close behind 
and his sole intention is to see the Maori hang. 


[img]http://img718.imageshack.us/img718/7797/81790127.png[/img]
[img]http://img291.imageshack.us/img291/2670/trtrj.png[/img]
[img]http://img855.imageshack.us/img855/8645/trtrtr.png[/img]
[img]http://img841.imageshack.us/img841/9797/trttrrtr.png[/img]
[img]http://img718.imageshack.us/img718/5271/trtttrrrtr.png[/img]
[img]http://img819.imageshack.us/img819/6600/trttttrrrrtr.png[/img]





Greetz

ViSiON,LUSi,SANTi,MAGNET,THC,T0XiCiNK,LKRG,IMAGiNE,WBZ,FLAWL3SS,NOVA
Vik,Rapeseed,D2U,SAFC,goldadvance,MEMORY100,KaN1vE,Unevano,Pinnz,Wayne,Mr Hive
and all P2P groups 
Great Work Guys :D

CM8@hushmail.com